<svg width="103" height="28" xmlns="http://www.w3.org/2000/svg"><path d="M51.261 8.969h-2.437c-.339 0-.542.14-.632.492l-1.653 6.393-1.913-6.393c-.09-.326-.313-.489-.626-.491v-.001h-1.767c-.313.003-.536.166-.626.492l-1.913 6.393-1.653-6.393c-.09-.352-.293-.492-.632-.492h-2.437c-.406 0-.587.258-.474.656l3.25 10.562c.09.327.339.491.655.491h2.166c.316 0 .564-.164.655-.491l1.892-6.152 1.893 6.152c.09.327.339.491.655.491h2.166c.317 0 .565-.164.655-.491l3.25-10.562c.113-.398-.068-.656-.474-.656zm6.551 8.738c-1.493 0-2.704-1.293-2.704-2.888 0-1.594 1.21-2.887 2.704-2.887 1.494 0 2.705 1.293 2.705 2.887 0 1.595-1.211 2.888-2.705 2.888zm5.524-8.738h-2.255c-.361 0-.564.21-.564.585v.52c-.925-.894-2.115-1.433-3.414-1.433-2.944 0-5.33 2.766-5.33 6.178s2.386 6.178 5.33 6.178c1.299 0 2.49-.538 3.414-1.433v.52c0 .375.203.586.564.586h2.255c.361 0 .564-.21.564-.585V9.554c0-.375-.203-.585-.564-.585zm39.632 4.286v6.838c0 .374-.203.585-.565.585h-2.257c-.36 0-.564-.21-.564-.585v-6.534c0-1.17-.654-1.686-1.512-1.686-1.015 0-1.648.585-1.648 1.967v6.253c0 .374-.203.585-.564.585h-2.257c-.36 0-.565-.21-.565-.585V9.554c0-.374.204-.585.565-.585h2.257c.36 0 .564.21.564.585v.484c.53-.813 1.492-1.397 2.934-1.397 2.1 0 3.612 1.686 3.612 4.614zm-14.454.304c-.35-1.333-1.345-1.803-2.34-1.803-1.269 0-2.147.635-2.495 1.803h4.835zm3.37 1.265c0 .304-.023.585-.045.866-.045.375-.27.539-.61.539h-7.537c.41 1.391 1.464 1.943 2.64 1.943.632 0 1.264-.234 1.67-.585.226-.187.406-.304.7-.304h2.167c.406 0 .632.257.45.632-.88 2.037-2.73 3.091-5.032 3.091-3.747 0-6.14-2.693-6.14-6.182 0-3.49 2.483-6.183 6.05-6.183 3.295 0 5.687 2.647 5.687 6.183zm-13-6.043c.384-.07.587.188.587.562v2.764c0 .374-.157.562-.45.562-1.265-.047-2.484.609-2.484 2.482v4.942c0 .374-.203.585-.564.585h-2.257c-.361 0-.564-.21-.564-.585V9.554c0-.374.203-.585.564-.585h2.257c.361 0 .564.21.564.585v1.266c.337-1.176 1.226-1.864 2.348-2.038zm-7.785 0c.383-.07.587.188.587.562v2.764c0 .374-.158.562-.451.562-1.265-.047-2.484.609-2.484 2.482v4.942c0 .374-.203.585-.564.585H65.93c-.36 0-.564-.21-.564-.585V9.554c0-.374.203-.585.564-.585h2.257c.361 0 .564.21.564.585v1.266c.337-1.176 1.227-1.864 2.348-2.038zm-49.99 9.133c0 1.538-1.202 2.785-2.684 2.785a.574.574 0 0 1-.564-.584V7.885c0-.323.253-.584.564-.584h2.12c.312 0 .564.261.564.584v10.029zm-5.976 2.785h-2.121a.574.574 0 0 1-.563-.584v-8.88c0-.323.252-.585.563-.585h2.121c.311 0 .563.262.563.585v8.88a.574.574 0 0 1-.563.584zm-5.412 0H7.6a.574.574 0 0 1-.564-.584V9.57c0-.323.252-.584.564-.584h2.12c.312 0 .564.261.564.584v10.545a.574.574 0 0 1-.563.584zM17.86 0h-7.577C4.604 0 0 4.777 0 10.67v16.746c0 .322.252.584.563.584h17.298c5.68 0 10.284-4.777 10.284-10.67v-6.66C28.145 4.777 23.541 0 17.861 0z" fill="#FFF" fill-rule="evenodd"/></svg>